<?xml version="1.0" standalone="no"?>
<!DOCTYPE svg PUBLIC "-//W3C//DTD SVG 20010904//EN"
 "http://www.w3.org/TR/2001/REC-SVG-20010904/DTD/svg10.dtd">
<svg version="1.0" xmlns="http://www.w3.org/2000/svg"
 width="512.000000pt" height="512.000000pt" viewBox="0 0 512.000000 512.000000"
 preserveAspectRatio="xMidYMid meet">
<metadata>
Created by potrace 1.14, written by Peter Selinger 2001-2017
</metadata>
<g transform="translate(0.000000,512.000000) scale(0.100000,-0.100000)"
fill="#000000" stroke="none">
<path d="M1360 5037 c-14 -13 -68 -50 -120 -82 -228 -141 -528 -405 -585 -515
-14 -28 -14 -30 6 -41 30 -16 81 -14 116 5 17 8 68 50 114 92 162 149 302 257
495 382 103 68 160 124 147 145 -10 16 -71 37 -110 37 -26 0 -46 -7 -63 -23z"/>
<path d="M3904 4905 c-3 -8 -14 -17 -25 -20 -38 -12 -19 -40 63 -95 45 -30 88
-62 97 -71 9 -8 45 -38 81 -66 84 -66 248 -235 333 -343 37 -47 83 -96 102
-109 19 -13 35 -30 35 -37 0 -17 56 -19 66 -3 14 24 6 87 -19 139 -57 121
-289 376 -452 498 -137 102 -265 151 -281 107z"/>
<path d="M1752 3320 c-62 -18 -135 -64 -182 -115 -50 -54 -122 -108 -147 -111
-17 -2 -46 11 -85 38 -116 78 -160 93 -278 92 -161 -1 -302 -52 -400 -145 -39
-37 -74 -203 -67 -318 11 -177 79 -301 264 -482 86 -84 136 -122 246 -190 75
-46 194 -121 263 -166 118 -77 130 -83 179 -83 69 0 124 20 200 75 34 24 65
41 69 38 3 -4 6 2 6 13 1 24 55 97 198 264 174 203 236 303 289 461 24 73 28
99 28 199 0 103 -3 121 -26 170 -59 125 -171 235 -268 264 -73 22 -208 20
-289 -4z m311 -33 c57 -24 168 -141 208 -217 33 -62 34 -69 34 -175 0 -129
-22 -212 -90 -341 -52 -101 -91 -153 -246 -335 -68 -79 -136 -165 -152 -191
-30 -48 -117 -116 -181 -143 -20 -8 -58 -15 -85 -15 -42 0 -59 7 -113 43 -35
23 -157 101 -271 172 -188 117 -218 140 -306 230 -113 116 -175 204 -210 295
-49 130 -28 381 38 453 52 57 161 104 295 128 124 21 208 0 335 -83 107 -70
118 -67 246 52 91 85 128 109 197 130 78 24 241 22 301 -3z"/>
<path d="M3355 3317 c-104 -22 -233 -123 -282 -222 -69 -136 -76 -246 -27
-393 13 -40 24 -77 24 -83 0 -26 253 -366 305 -409 10 -8 50 -51 89 -95 60
-69 119 -125 248 -242 57 -50 145 -57 228 -15 47 23 170 112 465 334 38 29
116 97 171 151 116 112 162 185 194 313 32 125 22 229 -36 374 -45 113 -156
195 -307 227 -149 31 -293 -12 -440 -132 -31 -25 -58 -45 -61 -45 -4 0 -48 42
-99 93 -89 88 -98 95 -176 120 -98 33 -210 42 -296 24z m258 -44 c97 -28 144
-63 254 -186 23 -26 46 -47 51 -47 5 0 40 25 78 55 139 112 277 158 404 135
201 -37 303 -137 346 -342 40 -188 -27 -371 -191 -526 -98 -92 -132 -119 -400
-320 -225 -168 -260 -186 -334 -179 -69 7 -89 23 -274 212 -149 152 -259 280
-363 421 -62 86 -79 117 -103 196 -52 167 -49 241 13 381 24 54 94 126 171
175 79 51 226 61 348 25z"/>
<path d="M357 1451 c-80 -18 -116 -42 -143 -93 -17 -34 -17 -33 2 -52 9 -10
33 -16 57 -16 112 0 160 -40 247 -209 134 -260 209 -351 405 -498 182 -135
243 -172 470 -276 279 -128 498 -197 805 -254 112 -21 177 -26 385 -30 353 -8
507 10 804 93 213 60 443 159 676 291 239 136 316 197 463 367 106 123 150
188 241 352 35 64 78 127 100 147 36 33 63 40 175 51 9 1 24 31 25 51 1 6 -20
25 -47 43 -43 29 -55 32 -120 32 -79 0 -98 -7 -152 -53 -26 -23 -43 -52 -67
-120 -58 -161 -151 -297 -320 -464 -179 -177 -341 -292 -568 -404 -304 -151
-632 -224 -1055 -236 -457 -12 -978 83 -1273 233 -419 213 -626 417 -861 850
-92 170 -123 214 -150 213 -12 0 -56 -9 -99 -18z"/>
</g>
</svg>
