<?xml version="1.0" standalone="no"?>
<!DOCTYPE svg PUBLIC "-//W3C//DTD SVG 20010904//EN"
 "http://www.w3.org/TR/2001/REC-SVG-20010904/DTD/svg10.dtd">
<svg version="1.0" xmlns="http://www.w3.org/2000/svg"
 width="512.000000pt" height="512.000000pt" viewBox="0 0 512.000000 512.000000"
 preserveAspectRatio="xMidYMid meet">

<g transform="translate(0.000000,512.000000) scale(0.100000,-0.100000)"
fill="#000000" stroke="none">
<path d="M1405 4695 c-78 -32 -163 -91 -317 -219 -224 -186 -309 -284 -278
-321 7 -8 20 -15 29 -15 30 0 128 66 244 163 145 121 208 168 340 255 147 97
154 103 152 132 -1 23 -6 25 -56 27 -39 2 -70 -4 -114 -22z"/>
<path d="M3596 4589 c-21 -36 -32 -23 109 -123 178 -127 320 -269 438 -441 56
-82 52 -79 88 -61 18 9 41 14 51 10 18 -5 18 -4 3 33 -28 66 -85 164 -130 222
-108 141 -335 327 -456 372 -67 26 -82 24 -103 -12z"/>
<path d="M3138 3990 c-123 -22 -213 -71 -330 -182 -59 -56 -74 -78 -126 -188
-71 -148 -89 -201 -118 -340 -23 -114 -24 -113 -44 25 -16 107 -53 223 -103
319 -81 156 -280 316 -418 336 -102 15 -202 12 -305 -11 -94 -20 -99 -22 -203
-103 -138 -108 -259 -236 -339 -361 -35 -55 -73 -112 -83 -127 -25 -36 -86
-227 -110 -346 -26 -125 -36 -404 -20 -564 14 -146 51 -292 96 -384 69 -141
266 -296 432 -339 75 -20 242 -19 318 0 147 38 268 119 377 253 35 42 84 100
109 128 25 27 70 99 101 160 90 177 135 329 161 554 l12 105 23 -120 c55 -285
87 -396 160 -540 66 -133 114 -199 226 -311 84 -83 117 -108 194 -148 115 -59
213 -80 325 -71 160 13 268 63 377 174 120 123 194 289 201 452 2 35 9 80 17
99 21 51 27 227 13 381 -40 435 -130 655 -367 893 -89 89 -213 179 -295 214
-88 38 -206 55 -281 42z m226 -59 c137 -48 336 -210 455 -370 81 -108 155
-276 186 -421 40 -187 59 -553 34 -645 -6 -22 -15 -76 -20 -120 -15 -132 -29
-183 -76 -276 -97 -189 -248 -302 -433 -324 -132 -16 -222 0 -340 61 -184 95
-358 300 -453 535 -38 95 -73 226 -114 434 -57 288 -26 517 109 795 56 116 67
130 142 200 133 122 230 163 371 156 46 -2 105 -13 139 -25z m-1294 -25 c237
-126 367 -315 415 -606 24 -143 16 -525 -13 -655 -40 -173 -121 -373 -190
-467 -59 -81 -213 -256 -254 -290 -144 -117 -310 -164 -498 -138 -118 16 -232
76 -346 183 -65 61 -91 94 -119 150 -69 142 -97 305 -97 577 0 153 4 220 20
310 27 150 82 321 124 388 103 163 133 205 208 285 45 48 130 125 189 171 96
75 114 86 176 100 101 22 337 17 385 -8z"/>
<path d="M1090 1420 c-54 -14 -113 -42 -149 -72 -31 -27 -32 -29 -34 -120 -2
-78 1 -99 19 -128 11 -19 27 -35 35 -35 8 0 30 33 51 73 20 40 43 81 51 90 7
9 17 25 20 34 11 32 78 43 185 29 88 -12 111 -20 260 -91 149 -72 421 -229
617 -356 93 -60 305 -168 385 -196 75 -26 112 -33 280 -59 179 -26 342 -21
523 17 219 46 521 159 550 206 7 10 19 18 28 18 20 0 29 20 29 61 0 26 -3 29
-32 29 -34 0 -71 -13 -283 -95 -270 -104 -572 -148 -800 -114 -38 5 -82 11
-96 13 -15 2 -73 18 -130 36 -153 49 -365 161 -507 269 -170 128 -260 185
-397 251 -183 88 -337 133 -495 144 -41 3 -91 1 -110 -4z"/>
</g>
</svg>
